<svg width="59" height="17" viewBox="0 0 59 17" fill="none" xmlns="http://www.w3.org/2000/svg">
<g clip-path="url(#clip0_1_1636)">
<rect width="59" height="17" fill="#140E4B"/>
<path d="M4.49805 13H3.56152V3.9834H0.259766V3.13574H7.7998V3.9834H4.49805V13ZM9.5498 12.2891C10.8691 12.2891 11.874 11.3936 11.874 10.2314V9.41797L9.7207 9.56836C8.4834 9.65039 7.82715 10.1289 7.82715 10.9561C7.82715 11.749 8.52441 12.2891 9.5498 12.2891ZM9.37207 13.082C7.90234 13.082 6.9043 12.2207 6.9043 10.9492C6.9043 9.69141 7.84766 8.95996 9.61133 8.83691L11.874 8.68652V8.05762C11.874 6.98438 11.1973 6.3623 10.0078 6.3623C8.98242 6.3623 8.26465 6.88867 8.10059 7.76367H7.23242C7.30762 6.47168 8.46973 5.55566 10.0146 5.55566C11.7031 5.55566 12.7764 6.49902 12.7764 7.98242V13H11.915V11.5918H11.8945C11.498 12.4873 10.5 13.082 9.37207 13.082ZM14.4307 13V2.70508H15.333V13H14.4307ZM18.0059 9.1377L21.6768 5.6377H22.7979L19.4756 8.81641L22.8662 13H21.7998L18.833 9.37012L17.999 10.1289V13H17.0967V2.70508H17.999V9.1377H18.0059ZM27.2822 3.87402H28.1846V5.6377H29.6406V6.39648H28.1846V11.1543C28.1846 11.9199 28.4854 12.248 29.1689 12.248C29.2646 12.248 29.6201 12.2275 29.6748 12.2207V12.9932C29.5791 13.0205 29.1826 13.041 28.9912 13.041C27.7744 13.041 27.2822 12.5146 27.2822 11.1885V6.39648H26.2295V5.6377H27.2822V3.87402ZM33.7012 13.082C31.6777 13.082 30.3584 11.6123 30.3584 9.31543C30.3584 7.01855 31.6777 5.55566 33.7012 5.55566C35.7246 5.55566 37.0508 7.01855 37.0508 9.31543C37.0508 11.6123 35.7246 13.082 33.7012 13.082ZM33.7012 12.2686C35.1982 12.2686 36.1279 11.1543 36.1279 9.31543C36.1279 7.47656 35.1982 6.3623 33.7012 6.3623C32.2109 6.3623 31.2812 7.4834 31.2812 9.31543C31.2812 11.1543 32.2109 12.2686 33.7012 12.2686ZM47.2979 5.6377V13H46.4434V11.6191H46.4229C46.0195 12.5215 45.1377 13.082 43.9756 13.082C42.3691 13.082 41.3779 12.043 41.3779 10.3818V5.6377H42.2803V10.2314C42.2803 11.5439 42.9844 12.2686 44.2285 12.2686C45.5137 12.2686 46.3887 11.3594 46.3887 9.96484V5.6377H47.2979ZM48.7744 7.62012C48.7744 6.40332 49.9023 5.55566 51.4199 5.55566C52.9102 5.55566 53.9902 6.44434 54.0654 7.70898H53.1973C53.1084 6.875 52.4316 6.32129 51.3926 6.32129C50.4082 6.32129 49.6699 6.82715 49.6699 7.57227C49.6699 8.17383 50.1074 8.52246 51.0439 8.75488L52.1719 9.02832C53.6484 9.39746 54.209 9.93066 54.209 10.9766C54.209 12.2207 53.0264 13.082 51.3721 13.082C49.793 13.082 48.6582 12.1797 48.5557 10.9287H49.4717C49.5811 11.7695 50.3125 12.3232 51.4268 12.3232C52.5273 12.3232 53.293 11.8174 53.293 11.0381C53.293 10.416 52.917 10.0742 51.9189 9.82812L50.6748 9.51367C49.4033 9.19238 48.7744 8.59082 48.7744 7.62012ZM56 3.13574H56.9434L56.8887 9.88281H56.0615L56 3.13574ZM56.4717 13.0684C56.1094 13.0684 55.8223 12.7812 55.8223 12.4189C55.8223 12.0498 56.1094 11.7695 56.4717 11.7695C56.8408 11.7695 57.1279 12.0498 57.1279 12.4189C57.1279 12.7812 56.8408 13.0684 56.4717 13.0684Z" fill="white"/>
</g>
<defs>
<clipPath id="clip0_1_1636">
<rect width="59" height="17" fill="white"/>
</clipPath>
</defs>
</svg>
